<svg version="1" xmlns="http://www.w3.org/2000/svg" width="682.667" height="682.667" viewBox="0 0 512.000000 512.000000"><path d="M309.8 40.5c-.2.1-3.4.5-7.3.9-10.3.9-15.3 1.6-22 2.7-3.3.6-7.1 1.3-8.5 1.5-1.4.3-9 2-16.9 4l-14.4 3.6-13.1-2.7C212 47.4 210.2 47.1 195 45c-15.3-2.1-44.2-3-52.5-1.7-1.6.3-5.5.9-8.5 1.2-20.3 2.6-43.5 11.8-59.7 23.6-8.1 5.9-20.2 18.2-25.1 25.6-10.9 16.1-18.6 37.2-20.9 57.3-.9 8.3-.9 28.6 0 37 .8 7.3 1.3 10.4 4.3 26 2.8 14.5 13.1 43.6 21.5 60.2 2.1 4.4 3.9 8.1 3.9 8.4 0 .2-10.3.4-23 .4-27.2 0-29.3.6-32.4 8.2-2.6 6.8.6 13.9 7.2 15.8 2.4.8 15.8 1 39.5.8l35.9-.3 3.5-3.9c3.2-3.5 3.5-4.3 3.1-8.5-.3-2.5-1.6-6.4-3-8.6-14-22.5-30.1-63.9-33.3-86.1-.4-2.2-.8-4.6-1-5.4-1.8-6.7-2.6-30.4-1.3-41.3 1.3-10.5 5.2-24.4 9.5-33.4 2-4.3 4.1-8 4.5-8.1.4-.2.8-.8.8-1.4 0-2.2 10.5-14 17.4-19.6 25.1-20.2 59-27.3 103.6-21.8 1.4.2 5.2.7 8.5 1.1 3.3.4 7.6 1.1 9.5 1.5 1.9.5 5.5 1.2 8 1.5 2.5.4 9.4 1.8 15.4 3.2l10.8 2.5 7.2-2c14.8-4.3 34.2-8.5 45.1-9.7 3.3-.4 8.9-1.1 12.5-1.5 6.5-.8 38.8-.6 42.5.3 1.1.2 4.3.8 7 1.2 16.9 2.4 39.1 12.3 50.5 22.5 13.4 12 19.2 18.9 25.8 30.7 8.3 14.9 11.6 28.5 11.6 48.3 0 23.4-3.7 37.4-18.3 68-4.8 10.2-9.4 20.1-10.1 22-.6 1.9-1.6 4.4-2 5.5-.5 1.1-1.6 4.8-2.5 8.3-4.3 16.5-.9 28.9 9.1 33.4 4.1 1.8 7 1.9 43.1 1.8 37.6 0 38.7-.1 42.1-2.2 7.1-4.4 7.3-15.2.4-20.3-2.6-1.9-4.5-2-36.9-2.3-29.8-.2-34.3-.5-34.3-1.8 0-2.9 7.3-21 13.6-33.8 10.2-20.6 17.3-40.5 18.9-53.1.3-2.2.7-5.1 1-6.5 1.3-5.9 1.2-29-.1-37.5-5.2-33.6-22.9-63.3-49.5-82.8-3.5-2.6-6.9-5.2-7.6-5.7-.7-.6-1.4-1-1.7-1-.2 0-3.1-1.6-6.3-3.4-11.1-6.6-31-13.2-45.3-15.1-3-.4-6.6-1-8-1.2-2.7-.5-38.7-1.2-39.2-.8z"/><path d="M175 88.1c-7.4.4-15.5 1.1-18 1.7-2.5.6-5.6 1.3-7 1.5-5.6 1-19 6.1-25.9 9.8-23.2 12.5-36.3 30.7-40.5 56.4-1.6 10.2-1.5 36.2.3 46 .6 3.3 1.3 7.5 1.6 9.3 1.5 9.2 8.2 24.9 17.9 42.2 15.8 28.3 21.2 47.1 22.1 77.3.9 27.6 1.5 43.3 2 45.6.2 1.2.7 5 1 8.4 2.6 25.2 11.2 51 22.6 67.8 8.9 13.1 15.5 17.2 28.4 17.3 10.5.1 17.7-3.1 23-10.3 6.5-8.9 7.3-13.5 8-43.6.4-18 1.2-32 2-37.5.2-1.4.7-4.5 1-7 2-14.5 9.1-37.6 15.2-49.3 7-13.3 19.6-19.7 29.3-14.7 7.9 4 15.5 18 22.6 41.4 2 6.6 3.2 11.6 5.9 24.7.2.9.6 4 1 7s.9 7 1.2 8.9c.3 1.9.6 15.4.7 30l.2 26.5 3.1 6.5c5.2 11 13.4 16.8 24.2 17.5 14 .8 22.6-4.4 32.8-19.9 10.6-16.1 17.9-38.9 20.8-65.1.3-2.8.8-6.4 1-8 .8-5 1.6-22 2-41.5.2-10.2.6-19.4.8-20.5.3-1.1.8-4.3 1.1-7 2.4-17.4 8.2-32.5 23.4-60.1 13.3-24.2 17.3-39.3 17.8-67.9.4-26.4-2.7-39.9-13-55.3-9.1-13.8-22.1-23.4-41.6-30.9-6.3-2.4-7.8-2.9-13-3.9-1.4-.3-4.1-.9-6-1.4-6.3-1.7-16.2-2.5-30.5-2.4-12.5 0-27 1-28.5 1.9-.3.2-2.5.6-4.9 1-4.5.7-21.5 5.5-26.7 7.6-2.7 1.1-3.9.9-10-1.4-21.3-7.9-37.4-9.9-67.4-8.6z"/></svg>